<?xml version="1.0" encoding="utf-8"?>
<!-- Generator: Adobe Illustrator 22.0.1, SVG Export Plug-In . SVG Version: 6.00 Build 0)  -->
<svg version="1.1" id="Layer_1" xmlns="http://www.w3.org/2000/svg" xmlns:xlink="http://www.w3.org/1999/xlink" x="0px" y="0px"
	 viewBox="0 0 500 131.1" style="enable-background:new 0 0 500 131.1;" xml:space="preserve">
<style type="text/css">
	.st0{clip-path:url(#SVGID_2_);}
	.st1{clip-path:url(#SVGID_4_);}
</style>
<g>
	<defs>
		<rect id="SVGID_1_" x="-493.5" y="425.3" width="1489" height="383.4"/>
	</defs>
	<clipPath id="SVGID_2_">
		<use xlink:href="#SVGID_1_"  style="overflow:visible;"/>
	</clipPath>
	<path class="st0" d="M861.3,490.4c52.5,0,72.6,53.5,72.6,132.2c0,77.7-18.2,133.7-72.6,133.7c-55,0-72.6-56-72.6-133.7
		C788.6,543.9,808.3,490.4,861.3,490.4 M861.3,808.7c83.7,0,134.2-72.6,134.2-186.2c0-116-54-184.1-134.2-184.1
		c-82.2,0-134.2,68.6-134.2,184.1C727.1,736.1,776.5,808.7,861.3,808.7 M546.3,438.4c-85.3,0-130.7,61-136.2,118.6l56.5,14.1
		c3-32.3,16.1-79.2,79.2-79.2c32.8,0,63.1,20.7,63.1,57c0,32.3-17.7,52-46.9,68.6c-22.7,13.1-50.4,28.8-70.6,42.4
		c-24.7,16.6-74.2,60-74.2,138.7h253.8v-54.5H483.2c0-9.6,11.1-28.8,45.9-46.9c14.1-7.1,35.3-18.2,48.9-24.7
		c44.4-21.7,95.3-51,95.3-124.6C673.4,480.8,612.9,438.4,546.3,438.4 M267.7,798.6h60V448h-42.9c-10.6,33.8-38.8,56.5-77.7,63.1V556
		l60.5-21.7V798.6z M-4.8,425.3c-71.6,0-140.2,36.8-140.2,106.9c0,60.5,48.9,90.8,95.9,103.4c27.7,7.6,53,13.1,87.8,20.2
		c29.8,6.1,45.9,20.7,45.9,44.9c0,21.7-20.2,46.9-74.2,46.9c-80.2,0-100.9-52.5-108.5-69.6l-57.5,21.7c21.7,86.8,107.5,108,165,108
		c82.2,0,144.8-46.4,144.8-114.5c0-62.6-48.4-89.8-95.9-98.9c-28.3-5.5-54-11.6-79.7-18.7c-41.9-11.6-56-25.7-56-46.9
		c0-25.7,22.2-46.4,72.6-46.4c72.6,0,97.9,59,97.9,59l52-36.3C123.9,460.6,68.9,425.3-4.8,425.3 M-319,493.4
		c28.3,0,49.9,17.7,49.9,49.9c0,33.8-19.7,51-59,51h-97.4V493.4H-319z M-493.5,798.6h68.1V653.9H-323c78.7,0,121.6-44.4,121.6-112
		c0-66.6-44.9-107.5-116.5-107.5h-175.6V798.6z"/>
</g>
<g>
	<defs>
		<rect id="SVGID_3_" x="2.7" y="2.3" width="494.7" height="127.4"/>
	</defs>
	<clipPath id="SVGID_4_">
		<use xlink:href="#SVGID_3_"  style="overflow:visible;"/>
	</clipPath>
	<path class="st1" d="M452.8,24c17.4,0,24.1,17.8,24.1,43.9c0,25.8-6,44.4-24.1,44.4c-18.3,0-24.1-18.6-24.1-44.4
		C428.6,41.7,435.2,24,452.8,24 M452.8,129.7c27.8,0,44.6-24.1,44.6-61.8c0-38.5-17.9-61.2-44.6-61.2c-27.3,0-44.6,22.8-44.6,61.2
		C408.2,105.6,424.6,129.7,452.8,129.7 M348.1,6.7c-28.3,0-43.4,20.3-45.3,39.4l18.8,4.7c1-10.7,5.4-26.3,26.3-26.3
		c10.9,0,20.9,6.9,20.9,18.9c0,10.7-5.9,17.3-15.6,22.8c-7.5,4.4-16.8,9.6-23.5,14.1c-8.2,5.5-24.6,19.9-24.6,46.1h84.3v-18.1h-62.3
		c0-3.2,3.7-9.6,15.3-15.6c4.7-2.3,11.7-6,16.3-8.2c14.7-7.2,31.7-16.9,31.7-41.4C390.3,20.8,370.2,6.7,348.1,6.7 M255.6,126.4h19.9
		V9.9h-14.2c-3.5,11.2-12.9,18.8-25.8,20.9v14.9l20.1-7.2V126.4z M165,2.3c-23.8,0-46.6,12.2-46.6,35.5c0,20.1,16.3,30.2,31.8,34.4
		c9.2,2.5,17.6,4.4,29.2,6.7c9.9,2,15.3,6.9,15.3,14.9c0,7.2-6.7,15.6-24.6,15.6c-26.7,0-33.5-17.4-36-23.1l-19.1,7.2
		c7.2,28.8,35.7,35.9,54.8,35.9c27.3,0,48.1-15.4,48.1-38c0-20.8-16.1-29.8-31.8-32.9c-9.4-1.8-17.9-3.9-26.5-6.2
		c-13.9-3.9-18.6-8.5-18.6-15.6c0-8.5,7.4-15.4,24.1-15.4c24.1,0,32.5,19.6,32.5,19.6l17.3-12.1C207.8,14.1,189.5,2.3,165,2.3
		 M60.6,25c9.4,0,16.6,5.9,16.6,16.6c0,11.2-6.5,16.9-19.6,16.9H25.3V25H60.6z M2.7,126.4h22.6V78.3h34c26.1,0,40.4-14.7,40.4-37.2
		C99.7,18.9,84.8,5.4,61,5.4H2.7V126.4z"/>
</g>
</svg>
